<?xml version="1.0" encoding="utf-8"?>
<!-- Generator: Adobe Illustrator 20.1.0, SVG Export Plug-In . SVG Version: 6.00 Build 0)  -->
<svg version="1.1" id="Layer_1" xmlns="http://www.w3.org/2000/svg" xmlns:xlink="http://www.w3.org/1999/xlink" x="0px" y="0px"
	 viewBox="0 0 234.8 57.9" style="enable-background:new 0 0 234.8 57.9;" xml:space="preserve">
<style type="text/css">
	.st0{fill:#FFFFFF;}
</style>
<g>
	<g>
		<path class="st0" d="M92.9,38.5h-3.8V27c0-1-0.4-1.9-1.1-2.7c-0.8-0.8-1.7-1.1-2.7-1.1v15.3h-3.8V23.2h-3.8v15.3h-3.8V19.4h11.5
			c2.1,0,3.9,0.8,5.4,2.3c1.5,1.5,2.3,3.3,2.3,5.4V38.5z"/>
		<path class="st0" d="M116.6,23.2l-7.7,15.3h-3.8l-7.7-15.3v-3.8h3.8v2.9l5.7,11.5l5.7-11.5v-2.9h3.8V23.2z"/>
		<path class="st0" d="M133.7,38.5h-11.5v-3.8h3.8V23.2h-3.8v-3.8h7.7v15.3h3.8V38.5z M129.9,13.6c0,0.5-0.2,1-0.6,1.4
			c-0.4,0.4-0.8,0.6-1.4,0.6s-1-0.2-1.4-0.6c-0.4-0.4-0.6-0.8-0.6-1.4c0-0.5,0.2-1,0.6-1.4c0.4-0.4,0.8-0.6,1.4-0.6s1,0.2,1.4,0.6
			C129.7,12.6,129.9,13.1,129.9,13.6z"/>
		<path class="st0" d="M157.8,38.5h-11.5c-2.1,0-3.9-0.8-5.4-2.3s-2.3-3.3-2.3-5.4V27c0-2.1,0.8-3.9,2.3-5.4
			c1.5-1.5,3.3-2.3,5.4-2.3h3.8c2.1,0,3.9,0.8,5.4,2.3c1.5,1.5,2.3,3.3,2.3,5.4v3.8h-15.3c0,1,0.4,1.9,1.1,2.7
			c0.8,0.8,1.7,1.1,2.7,1.1h11.5V38.5z M153.9,27c0-1-0.4-1.9-1.1-2.7c-0.8-0.8-1.7-1.1-2.7-1.1h-3.8c-1,0-1.9,0.4-2.7,1.1
			c-0.8,0.8-1.1,1.7-1.1,2.7H153.9z"/>
		<path class="st0" d="M172.3,34.7c-1,2.6-2.2,3.8-3.6,3.8c-1.6,0-2.9-0.8-4.1-2.5c-1.1-1.7-1.7-3.7-1.7-6.1V19.4h3.8v10.5
			c0,1.3,0.2,2.5,0.6,3.4c0.4,0.9,0.8,1.4,1.4,1.4s1-0.5,1.4-1.4c0.4-0.9,0.6-2.1,0.6-3.4V19.4h3.8v10.5c0,1.3,0.2,2.5,0.6,3.4
			c0.4,0.9,0.8,1.4,1.4,1.4c0.5,0,1-0.5,1.4-1.4c0.4-0.9,0.6-2.1,0.6-3.4V19.4h3.8v10.5c0,2.4-0.6,4.4-1.7,6.1
			c-1.1,1.7-2.5,2.5-4.1,2.5c-1.4,0-2.6-1.3-3.6-3.8H172.3z"/>
		<path class="st0" d="M206.5,38.5H195c-2.1,0-3.9-0.8-5.4-2.3s-2.3-3.3-2.3-5.4V27c0-2.1,0.8-3.9,2.3-5.4c1.5-1.5,3.3-2.3,5.4-2.3
			h3.8c2.1,0,3.9,0.8,5.4,2.3c1.5,1.5,2.3,3.3,2.3,5.4v3.8h-15.3c0,1,0.4,1.9,1.1,2.7c0.8,0.8,1.7,1.1,2.7,1.1h11.5V38.5z M202.7,27
			c0-1-0.4-1.9-1.1-2.7c-0.8-0.8-1.7-1.1-2.7-1.1H195c-1,0-1.9,0.4-2.7,1.1c-0.8,0.8-1.1,1.7-1.1,2.7H202.7z"/>
		<path class="st0" d="M215.6,19.4v5.2l2.4-2.4c1.9-1.9,3.7-2.9,5.3-2.9c2.1,0,3.9,0.7,5.4,2.2c1.5,1.5,2.2,3.3,2.2,5.4h-3.8
			c0-1-0.4-1.9-1.1-2.7c-0.8-0.8-1.7-1.1-2.7-1.1c-1.3,0-2.6,0.6-3.8,1.9l-3.8,3.8v9.6h-3.8V19.4H215.6z"/>
	</g>
	<g>
		<path class="st0" d="M17.5,53.9c-2.5,0-4.7-0.8-6.4-2.3C9.3,50,8.4,48.2,8.4,46V35.8c0-1.2-0.4-2.3-1.3-3.2s-2-1.3-3.2-1.3v-4.6
			c1.2,0,2.3-0.4,3.2-1.3c0.9-0.9,1.3-2,1.3-3.2V11.9c0-2.2,0.9-4.1,2.7-5.6c1.8-1.6,3.9-2.3,6.4-2.3v4.6c-1.2,0-2.3,0.4-3.2,1.3
			c-0.9,0.9-1.3,2-1.3,3.2v11.4c0,1.6-1.5,3-4.6,4.3v0.5c3,1.2,4.6,2.7,4.6,4.3v11.4c0,1.2,0.4,2.3,1.3,3.2c0.9,0.9,2,1.3,3.2,1.3
			V53.9z"/>
		<path class="st0" d="M63.5,31.2c-1.2,0-2.3,0.4-3.2,1.3c-0.9,0.9-1.3,2-1.3,3.2V46c0,2.2-0.9,4.1-2.7,5.6
			c-1.8,1.6-3.9,2.3-6.4,2.3v-4.6c1.2,0,2.3-0.4,3.2-1.3c0.9-0.9,1.3-1.9,1.3-3.2V33.5c0-1.6,1.5-3,4.6-4.3v-0.5
			c-3-1.2-4.6-2.7-4.6-4.3V13c0-1.2-0.4-2.3-1.3-3.2c-0.9-0.9-2-1.3-3.2-1.3V3.9c2.5,0,4.7,0.8,6.4,2.3c1.8,1.6,2.7,3.4,2.7,5.6
			v10.2c0,1.2,0.4,2.3,1.3,3.2c0.9,0.9,2,1.3,3.2,1.3V31.2z"/>
	</g>
	<g>
		<polyline class="st0" points="21.6,34.3 21.6,40.2 22.3,40.2 22.3,34.3 		"/>
		<polyline class="st0" points="45,34.3 45,40.2 45.8,40.2 45.8,34.3 		"/>
		<polyline class="st0" points="21.6,26.1 21.6,31.9 22.3,31.9 22.3,26.1 		"/>
		<polyline class="st0" points="45,26.1 45,31.9 45.8,31.9 45.8,26.1 		"/>
		<g>
			<path class="st0" d="M23.5,33.5c-0.5,0.2-0.9,0.4-1.1,0.6c-0.1,0.1-0.1,0.2-0.1,0.2c0,0,0,0.1,0.1,0.2c0.1,0.1,0.3,0.3,0.6,0.4
				c0.5,0.3,1.4,0.5,2.4,0.7c2.1,0.4,5,0.7,8.2,0.7c4.2,0,7.9-0.5,9.9-1.1c0.7-0.2,1.1-0.5,1.3-0.7c0.1-0.1,0.1-0.2,0.1-0.2h0.4h0.4
				c0,0.3-0.1,0.5-0.3,0.7c-0.2,0.2-0.5,0.4-0.8,0.5c-0.6,0.3-1.5,0.6-2.6,0.8c-2.2,0.4-5.1,0.7-8.4,0.7c-4.3,0-8-0.5-10.1-1.2
				c-0.7-0.2-1.2-0.5-1.6-0.9c-0.2-0.2-0.3-0.5-0.3-0.7c0-0.3,0.1-0.5,0.3-0.7c0.2-0.2,0.5-0.4,0.8-0.5L23.5,33.5z"/>
			<path class="st0" d="M44.3,32.9c0.2,0.1,0.5,0.2,0.6,0.3c0.3,0.2,0.5,0.4,0.7,0.6c0.1,0.1,0.1,0.3,0.1,0.5h-0.4H45l0-0.1
				c0-0.1-0.1-0.1-0.2-0.2c-0.2-0.2-0.5-0.3-0.9-0.5c-0.2-0.1-0.4-0.1-0.6-0.1L44.3,32.9z"/>
			<path class="st0" d="M45,40.2c0,0,0,0.1-0.1,0.2c-0.2,0.2-0.7,0.5-1.3,0.7c-2,0.7-5.7,1.1-9.9,1.1c-3.2,0-6.1-0.3-8.2-0.7
				c-1-0.2-1.9-0.5-2.4-0.7c-0.3-0.1-0.5-0.3-0.6-0.4c-0.1-0.1-0.1-0.2-0.1-0.2h-0.7c0,0.3,0.1,0.5,0.3,0.7c0.4,0.3,0.9,0.6,1.6,0.9
				c2.1,0.7,5.9,1.2,10.1,1.2c3.3,0,6.2-0.3,8.4-0.7c1.1-0.2,2-0.5,2.6-0.8c0.3-0.2,0.6-0.3,0.8-0.5c0.2-0.2,0.3-0.5,0.3-0.7H45
				L45,40.2z"/>
			<path class="st0" d="M24.3,25c-0.3,0.1-0.5,0.2-0.8,0.3c-0.5,0.2-0.9,0.4-1,0.6c-0.1,0.1-0.1,0.2-0.1,0.2c0,0,0,0.1,0.1,0.2
				c0.1,0.1,0.3,0.3,0.6,0.4c0.5,0.3,1.4,0.5,2.4,0.7c2.1,0.4,5,0.7,8.2,0.7c4.2,0,7.9-0.5,9.9-1.1c0.7-0.2,1.1-0.5,1.3-0.7
				c0.1-0.1,0.1-0.2,0.1-0.2h0.4h0.4c0,0.3-0.1,0.5-0.3,0.7c-0.2,0.2-0.5,0.4-0.8,0.5c-0.6,0.3-1.5,0.6-2.6,0.8
				c-2.2,0.4-5.1,0.7-8.4,0.7c-4.3,0-8-0.5-10.1-1.2c-0.7-0.2-1.2-0.5-1.6-0.9c-0.2-0.2-0.3-0.5-0.3-0.7c0-0.3,0.1-0.5,0.3-0.7
				c0.2-0.2,0.5-0.4,0.8-0.5c0.2-0.1,0.4-0.1,0.6-0.2L24.3,25z"/>
			<path class="st0" d="M44.2,24.6c0.5,0.2,0.9,0.4,1.2,0.7c0.2,0.2,0.4,0.5,0.4,0.8h-0.4H45c0,0,0-0.1-0.2-0.3
				c-0.2-0.1-0.4-0.3-0.8-0.4c-0.2-0.1-0.5-0.2-0.8-0.2L44.2,24.6z"/>
			<path class="st0" d="M45,31.9c0,0,0,0.1-0.1,0.2c-0.2,0.2-0.7,0.5-1.3,0.7c-2,0.7-5.7,1.1-9.9,1.1c-3.2,0-6.1-0.3-8.2-0.7
				c-1-0.2-1.9-0.5-2.4-0.7c-0.3-0.1-0.5-0.3-0.6-0.4c-0.1-0.1-0.1-0.2-0.1-0.2h-0.7c0,0.3,0.1,0.5,0.3,0.7c0.4,0.3,0.9,0.6,1.6,0.9
				c2.1,0.7,5.9,1.2,10.1,1.2c3.3,0,6.2-0.3,8.4-0.7c1.1-0.2,2-0.5,2.6-0.8c0.3-0.2,0.6-0.3,0.8-0.5c0.2-0.2,0.3-0.5,0.3-0.7H45
				L45,31.9z"/>
			<path class="st0" d="M45.4,17.7H45c0,0,0,0.1-0.1,0.2c-0.2,0.2-0.7,0.5-1.3,0.7c-2,0.7-5.7,1.1-9.9,1.1c-3.2,0-6.1-0.3-8.2-0.7
				c-1-0.2-1.9-0.5-2.4-0.7c-0.3-0.1-0.5-0.3-0.6-0.4c-0.1-0.1-0.1-0.2-0.1-0.2c0,0,0-0.1,0.1-0.2c0.2-0.2,0.7-0.5,1.3-0.7
				c2-0.7,5.7-1.1,9.9-1.1c3.2,0,6.1,0.3,8.2,0.7c1,0.2,1.9,0.5,2.4,0.7c0.3,0.1,0.5,0.3,0.6,0.4c0.1,0.1,0.1,0.2,0.1,0.2H45.4h0.4
				c0-0.3-0.1-0.5-0.3-0.7c-0.4-0.3-0.9-0.6-1.6-0.9c-2.1-0.7-5.9-1.2-10.1-1.2c-3.3,0-6.2,0.3-8.4,0.7c-1.1,0.2-2,0.5-2.6,0.8
				c-0.3,0.2-0.6,0.3-0.8,0.5c-0.2,0.2-0.3,0.5-0.3,0.7c0,0.3,0.1,0.5,0.3,0.7c0.4,0.3,0.9,0.6,1.6,0.9c2.1,0.7,5.9,1.2,10.1,1.2
				c3.3,0,6.2-0.3,8.4-0.7c1.1-0.2,2-0.5,2.6-0.8c0.3-0.2,0.6-0.3,0.8-0.5c0.2-0.2,0.3-0.5,0.3-0.7H45.4z"/>
			<path class="st0" d="M45,23.6c0,0,0,0.1-0.1,0.2c-0.2,0.2-0.7,0.5-1.3,0.7c-2,0.7-5.7,1.1-9.9,1.1c-3.2,0-6.1-0.3-8.2-0.7
				c-1-0.2-1.9-0.5-2.4-0.7c-0.3-0.1-0.5-0.3-0.6-0.4c-0.1-0.1-0.1-0.2-0.1-0.2h-0.7c0,0.3,0.1,0.5,0.3,0.7c0.4,0.3,0.9,0.6,1.6,0.9
				c2.1,0.7,5.9,1.2,10.1,1.2c3.3,0,6.2-0.3,8.4-0.7c1.1-0.2,2-0.5,2.6-0.8c0.3-0.2,0.6-0.3,0.8-0.5c0.2-0.2,0.3-0.5,0.3-0.7H45
				L45,23.6z"/>
		</g>
		<polyline class="st0" points="21.6,17.7 21.6,23.6 22.3,23.6 22.3,17.7 		"/>
		<polyline class="st0" points="45,17.7 45,23.6 45.8,23.6 45.8,17.7 		"/>
	</g>
</g>
</svg>
